<svg version="1.1" id="logo" xmlns="http://www.w3.org/2000/svg" xmlns:xlink="http://www.w3.org/1999/xlink" x="0px" y="0px"
	viewBox="0 0 168.218 132" enable-background="new 0 0 168.218 132" xml:space="preserve">
<g>
	<path fill-rule="evenodd" clip-rule="evenodd" fill="#FFFFFF" d="M-176.649,12.376c37.801,0,75.553,0,113.68,0"/>
</g>
<g>
	<polygon fill-rule="evenodd" clip-rule="evenodd" fill="#FFFFFF" points="0,48 0,0 168.218,0 11.966,90.076 11.996,119.672 
		125.803,119.672 48.848,75.695 59.104,69.638 168.218,132 0,132 0,83.76 125.719,12.067 12.039,12.067 11.966,42.014 
		36.061,56.448 25.531,62.534 0,48 	"/>
	<path fill-rule="evenodd" clip-rule="evenodd" fill="#FFFFFF" d="M11.352,12.255c37.801,0,75.553,0,113.68,0"/>
	<path fill-rule="evenodd" clip-rule="evenodd" fill="#FFFFFF" d="M-0.688,132.187c56,0,112,0,168,0
		c-0.039,0.08-0.076,0.227-0.121,0.229c-0.318,0.021-0.639,0.011-0.959,0.011c-55.279,0-110.56,0-165.84-0.01
		C0.033,132.417-0.327,132.267-0.688,132.187z"/>
</g>
</svg>
